<svg version="1.1" xmlns="http://www.w3.org/2000/svg" xmlns:xlink="http://www.w3.org/1999/xlink" width="431.52013" height="318.97368" viewBox="0,0,431.52013,318.97368"><defs><linearGradient x1="239.54992" y1="20.51316" x2="239.54992" y2="334.49943" gradientUnits="userSpaceOnUse" id="color-1"><stop offset="0" stop-color="#00a6db"/><stop offset="1" stop-color="#cefff5"/></linearGradient></defs><g transform="translate(-23.77193,-20.51316)"><g data-paper-data="{&quot;isPaintingLayer&quot;:true}" fill-rule="nonzero" stroke="none" stroke-linecap="butt" stroke-linejoin="miter" stroke-miterlimit="10" stroke-dasharray="" stroke-dashoffset="0" style="mix-blend-mode: normal"><path d="M23.80778,334.49943v-313.98627h431.48428v313.98627z" fill="url(#color-1)" stroke-width="0"/><path d="M324.24557,230.75915c0,0 -40.18904,0.60111 -63.03988,-32.65809c-13.72265,-19.97319 -21.90628,-41.36992 -23.14855,-59.48402c-1.0912,-15.91141 14.09255,-38.12747 26.87596,-39.35927c8.77748,-0.84579 18.11256,38.45011 28.41086,72.72476c11.16465,37.15804 30.90161,58.77662 30.90161,58.77662z" fill="#ffffff" stroke-width="0"/><path d="M295.11097,291.37242l9.05263,-83.04805l95.24943,-5.5103l19.67963,88.55835z" fill="#4b5eff" stroke-width="0"/><path d="M330.3783,268.54405c0,0 -13.23188,-5.4431 -21.94917,-19.59811c-3.48894,-5.6653 -6.38265,-20.38962 -6.38265,-20.38962l-2.1975,4.50098c0,0 -3.53911,-17.74862 6.74867,-24.78275c17.98035,-12.29382 56.7644,-15.63725 75.02201,9.25481c7.7577,10.5767 3.52911,23.50609 3.52911,23.50609c0,0 -5.16257,-1.93958 -6.67708,-3.78651c-0.97289,-1.18643 -3.35933,-4.06651 -3.35933,-4.06651c0,0 -5.66375,10.48182 -12.60017,16.94668c-9.16827,8.54498 -32.13389,18.41494 -32.13389,18.41494z" fill="#ffffff" stroke-width="0"/><path d="M300.43935,206.75c-7.51054,-14.60904 -7.29345,-13.68023 -2.36156,-18.10526c5.25705,-4.71678 83.6985,-4.96457 100.75973,3.54233c8.14526,4.06131 4.2403,10.8822 4.2403,10.8822c0,0 10.74399,10.98841 4.02515,12.33977c-25.49415,5.12763 -53.26522,29.50497 -79.15876,24.81169c-22.09081,-4.00403 -19.99432,-18.86169 -27.50486,-33.47073z" fill="#ffcfdc" stroke-width="0"/><path d="M347.00947,239.36111c0,0 2.22959,-1.00581 1.94444,-3.88889c-0.15514,-1.5686 1.10321,-5.37745 1.10321,-5.37745l-0.77145,-5.65014c0,0 -1.96432,-1.1693 -2.43953,-4.66731c-0.55026,-4.0504 -0.67,-10.44399 -0.67,-10.44399c0,0 18.33604,-4.35797 21.22222,3.77778c1.74043,4.90602 -0.07368,10.66457 -0.07368,10.66457c0,0 0.33118,2.93916 0.40702,4.08543c0.11983,1.81105 -0.61111,3.88889 -0.61111,3.88889c0,0 -6.2437,2.97853 -9.35406,4.13796c-3.24531,1.20974 -10.75706,3.47315 -10.75706,3.47315z" fill="#ffedf2" stroke-width="0"/><path d="M414.46403,309.33753l-25.33333,-121.33333c0,0 13.60776,-8.24917 23.66667,10.33333c3.1245,5.7721 6.13663,24.74015 10.43308,39.17549c9.44648,31.73857 29.23359,67.49118 29.23359,67.49118z" fill="#ffcfdc" stroke-width="0"/><path d="M398.62456,217.16363c0,0 5.64948,-1.36738 4.84114,-5.41151c-0.42408,-2.12169 -5.50327,-6.8307 -5.50327,-6.8307c0,0 2.53368,-3.29493 1.02845,-5.93283c-0.42797,-0.75001 -1.59191,-2.99872 -4.82787,-3.58639c-5.47116,-0.99359 -14.35663,0.61598 -14.35663,0.61598c0,0 20.50447,-8.47504 23.90909,0.45455c1.26956,3.32979 -0.72727,6.61818 -0.72727,6.61818c0,0 10.29182,10.20144 5,11.8c-4.30003,1.29896 -9.36364,2.27273 -9.36364,2.27273z" fill="#ffedf2" stroke-width="0"/><path d="M300.8367,207.35227c0,0 -1.06506,-0.44743 0.73096,-3.32778c1.26197,-2.02388 3.14782,-2.18886 3.74421,-3.61657c1.44515,-3.4596 1.52483,-11.90793 1.52483,-11.90793l13.45455,13.63636c0,0 -8.01976,6.12523 -9.99784,10.23169c-2.74216,5.69267 -3.59307,10.9274 -3.59307,10.9274c0,0 -2.61968,-8.06861 -3.87753,-10.82024c-1.04324,-2.28215 -1.98611,-5.12294 -1.98611,-5.12294z" fill="#ffedf2" stroke-width="0"/><path d="M406.48229,280.13959l-4.60036,-12.78057c0,0 18.933,-1.46892 25.89376,-2.2665c3.07262,-0.35207 6.22168,1.74802 6.22168,1.74802l5.96385,13.34188c0,0 -5.87013,-1.27125 -9.06576,-0.88002c-7.16573,0.87728 -24.41316,0.83719 -24.41316,0.83719z" fill="#ffedf2" stroke-width="0"/><path d="M303.9817,196.76999c-17.11478,-20.85054 -10.627,-44.92579 -10.627,-44.92579c0,0 -7.56508,-37.11512 3.93593,-50.09182c5.3643,-6.05259 28.33867,9.10294 28.33867,9.10294c0,0 7.39736,-1.28005 25.61539,-0.72826c18.37602,0.55657 27.72467,6.00948 27.72467,6.00948c0,0 47.04953,-3.86189 51.35559,3.13318c9.56145,15.53232 -19.67963,43.44908 -19.67963,43.44908c0,0 5.75185,34.87325 -39.64888,49.73516c-17.24504,5.64515 -50.32833,4.6447 -67.01474,-15.68396z" fill="#4b5eff" stroke-width="0"/><g stroke-width="0"><path d="M322.54128,172.58789l19.30598,2.93124c0,0 8.92656,25.35836 -2.07893,26.61427c-3.76586,0.42975 -10.79763,-4.78347 -14.66281,-15.07373c-2.16427,-5.76193 -2.56424,-14.47179 -2.56424,-14.47179z" fill="#563131"/><path d="M332.36911,198.61857c0,0 -0.74401,-7.29418 1.76152,-11.66553c2.50553,-4.37135 9.01376,-6.89942 9.01376,-6.89942c0,0 5.7059,16.65494 -1.22409,21.25466c-5.34357,3.54675 -9.55119,-2.68971 -9.55119,-2.68971z" fill="#ff6f6f"/><path d="M333.94633,202.53237c-0.20693,-1.74379 5.8432,0.49193 9.06503,-3.78464c2.58229,-3.42766 2.17434,-8.67882 2.17434,-8.67882c0,0 1.26421,7.02129 0,9.86691c-2.73639,6.15933 -11.10067,3.76544 -11.23937,2.59655z" fill="#ffe07f"/><path d="M318.74384,178.83027c-1.25725,-2.08925 3.57003,-11.70819 10.72209,-13.33503c8.43601,-1.91889 12.74938,10.18148 12.74938,10.18148c0,0 -5.60337,-1.50204 -11.7132,-0.31535c-4.66076,0.90524 -10.88754,4.91583 -11.75826,3.46891z" fill="#ffe07f"/></g><path d="M23.77193,339.48684v-65.33638h431.45614v65.33638z" fill="#caae94" stroke-width="0"/><path d="M330.34612,154.40217c0,0 -22.43269,-14.63783 -17.38086,-30.0324c9.80115,-29.8673 70.70852,-45.43363 70.70852,-45.43363c0,0 5.92353,39.38747 -8.69043,59.29474c-11.31704,15.41618 -44.63722,16.17129 -44.63722,16.17129z" fill="#c9ff81" stroke-width="0"/><path d="M356.97935,160.47433c0,0 1.85244,-3.73032 5.40246,-4.65212c1.89424,-0.49186 9.23211,-0.88838 16.00962,0.09573c5.79582,0.84157 11.4529,4.40632 11.4529,4.40632c0,0 -5.7184,3.78228 -16.35746,4.05185c-9.14672,0.23176 -16.50753,-3.90178 -16.50753,-3.90178z" fill="#ffffff" stroke-width="0"/><path d="M390.64894,230.38958l-4.60036,-12.78057c0,0 18.93301,-1.46891 25.89377,-2.2665c3.07262,-0.35207 6.22167,1.74801 6.22167,1.74801l3.18607,13.67522c0,0 -3.09235,-1.60459 -6.28799,-1.21335c-7.16573,0.87728 -24.41316,0.83719 -24.41316,0.83719z" fill="#ffedf2" stroke-width="0"/><path d="M312.7804,159.07812c-8.23138,-1.40219 -12.16095,-5.75943 -12.16095,-5.75943c0,0 2.5416,-3.24925 7.16023,-3.46462c5.40094,-0.25185 12.34936,1.10234 13.75455,1.79173c2.6335,1.292 4.60555,5.32806 4.60555,5.32806c0,0 -6.28261,3.30977 -13.35938,2.10426z" data-paper-data="{&quot;index&quot;:null}" fill="#ffffff" stroke-width="0"/><path d="M330.88088,153.61499c0,0 -1.10657,-9.29727 2.2219,-20.69219c4.75096,-16.26482 33.70151,-35.38752 33.70151,-35.38752c0,0 -19.38757,23.69071 -27.35892,38.45862c-5.8085,10.76096 -8.56449,17.62109 -8.56449,17.62109z" fill="#f4ffe5" stroke-width="0"/><path d="M356.32951,250.12272c13.31068,-11.13897 25.7083,-5.16751 25.7083,-5.16751c0,0 -4.89427,-6.36052 -3.9034,-16.91868c1.39349,-14.84836 15.0877,-16.97319 22.67107,-16.12699c16.26066,1.81447 39.39769,52.60578 24.79634,64.58565c-10.97266,9.00266 -59.03471,2.76734 -75.00958,5.53396c-6.0363,1.0454 -1.93476,-25.48613 5.73727,-31.90643z" fill="#ffffff" stroke-width="0"/><text transform="translate(40.96433,318.5) scale(0.80336,0.80336)" font-size="40" xml:space="preserve" fill="#ffffff" fill-rule="nonzero" stroke="none" stroke-width="1" stroke-linecap="butt" stroke-linejoin="miter" stroke-miterlimit="10" stroke-dasharray="" stroke-dashoffset="0" font-family="Malgun Gothic" font-weight="normal" text-anchor="start" style="mix-blend-mode: normal"><tspan x="0" dy="0">Thanks for visit my website</tspan></text><g stroke-width="0"><path d="M106.14156,248.28471c-38.67677,-2.78445 -56.98477,-46.11358 -56.98477,-46.11358c0,0 25.82419,-22.69647 46.53321,-21.09437c20.3779,1.57648 35.57457,18.25642 60.71031,24.6348c23.11938,5.86671 60.47803,0.19474 60.47803,0.19474c0,0 -58.76758,46.11982 -110.73679,42.37841z" fill="#c9ff81"/><path d="M134.2424,222.4117c-17.93943,-0.63951 -35.10287,-17.74676 -44.22895,-20.12747c-19.17439,-5.00202 -39.92416,0.06924 -39.92416,0.06924c0,0 19.33453,-11.26975 39.93032,-8.57831c17.7536,2.32002 19.96985,17.39462 42.4661,21.96107c25.4141,5.15873 46.51548,1.21796 46.51548,1.21796c0,0 -23.61785,6.21115 -44.75879,5.45751z" fill="#f4ffe5"/></g><text transform="translate(70.60289,169.95757) rotate(5.41322) scale(1.3234,1.3234)" font-size="40" xml:space="preserve" fill="#ffffff" fill-rule="nonzero" stroke="none" stroke-width="1" stroke-linecap="butt" stroke-linejoin="miter" stroke-miterlimit="10" stroke-dasharray="" stroke-dashoffset="0" font-family="Marker" font-weight="normal" text-anchor="start" style="mix-blend-mode: normal"><tspan x="0" dy="0">Hello.</tspan></text></g></g></svg>