<svg version="1.1" xmlns="http://www.w3.org/2000/svg" xmlns:xlink="http://www.w3.org/1999/xlink" width="260.3508" height="113.15363" viewBox="0,0,260.3508,113.15363"><g transform="translate(-98.49847,-113)"><g data-paper-data="{&quot;isPaintingLayer&quot;:true}" fill-rule="nonzero" stroke="none" stroke-width="0" stroke-linecap="butt" stroke-linejoin="miter" stroke-miterlimit="10" stroke-dasharray="" stroke-dashoffset="0" style="mix-blend-mode: normal"><g fill="#3b2763"><path d="M103.5,116h32.74219c0,0 -5.61246,59.73038 3.59635,67c8.52697,6.73137 9.07031,-21.33334 9.07031,-21.33334h13c0,0 -0.55305,28.90618 9.26302,21.33334c7.14202,-5.50989 3.40365,-67 3.40365,-67h31.92448c0,0 11.97376,106.68754 -22.00521,110c-22.41759,2.18539 -29.33333,-19.66666 -29.33333,-19.66666c0,0 -9.85208,20.21064 -29,19.66666c-34.63756,-0.98402 -22.66146,-110 -22.66146,-110z"/><path d="M235.44085,175.41957c-5.73937,-0.85137 -9.43418,4.88514 -7.97508,9.18672c2.59403,7.64748 11.10942,4.01677 11.10942,4.01677c0,0 -0.35182,3.9258 -0.8402,6.33777c-0.50484,2.49327 -1.51593,5.20354 -1.51593,5.20354c0,0 -9.23958,1.09543 -14.42537,-3.45674c-5.92938,-5.2049 -6.67923,-13.24209 -5.72072,-19.08716c1.61171,-9.8284 17.29885,-22.22499 32.13307,-11.00447c15.8964,12.02395 -2.49435,55.90273 -2.49435,55.90273h-14.34249c0,0 17.88765,-45.04971 4.07165,-47.09915z"/><path d="M257.64106,210.73273c-0.27213,-4.79067 -0.66008,-30.06893 -0.11942,-35.33658c1.12151,-10.92687 15.32894,-12.03493 15.32894,-12.03493l0.18018,12.75229c0,0 -3.13972,0.13568 -3.2314,5.13179c-0.06005,3.27209 -0.21603,20.56083 -0.00922,25.29681c0.27022,6.18795 9.67564,6.08309 9.79271,-0.03095c0.07202,-3.76181 0.45087,-21.67774 0.21961,-25.27172c-0.35958,-5.5883 -4.27364,-5.06311 -4.27364,-5.06311l-0.16386,-12.94472c0,0 15.50089,0.15605 15.9012,11.01715c0.24104,6.53978 0.32008,31.56838 0.00893,37.50482c-0.71374,13.61714 -32.59582,17.25633 -33.63403,-1.02083z"/><path d="M314.07193,175.13155c-5.73937,-0.85137 -9.43417,4.88514 -7.97508,9.18672c2.59404,7.64748 11.10942,4.01677 11.10942,4.01677c0,0 -0.35183,3.92579 -0.84021,6.33776c-0.50484,2.49327 -1.51592,5.20355 -1.51592,5.20355c0,0 -9.23958,1.09543 -14.42537,-3.45674c-5.92939,-5.2049 -6.67922,-13.24209 -5.72072,-19.08716c1.61171,-9.8284 17.29885,-22.22499 32.13307,-11.00447c15.8964,12.02395 -2.49435,55.90274 -2.49435,55.90274h-14.3425c0,0 17.88765,-45.04971 4.07166,-47.09916z"/><path d="M345.98411,222.13469c0,0 0.05219,-31.94253 -0.19202,-38.11078c-0.35818,-9.04664 -7.48868,-5.98884 -7.48868,-5.98884c0,0 1.23133,-5.51057 3.45632,-9.074c5.62898,-9.01511 16.36837,-9.02997 16.70551,3.81108c0.27369,10.42469 0.38403,49.36254 0.38403,49.36254z"/></g><g><path d="M100.5,113h32.74219c0,0 -5.61246,59.73038 3.59635,67c8.52697,6.73137 9.07031,-21.33334 9.07031,-21.33334h13c0,0 -0.55305,28.90618 9.26302,21.33334c7.14202,-5.50989 3.40365,-67 3.40365,-67h31.92448c0,0 11.97376,106.68754 -22.00521,110c-22.41759,2.18539 -29.33333,-19.66666 -29.33333,-19.66666c0,0 -9.85208,20.21064 -29,19.66666c-34.63756,-0.98402 -22.66146,-110 -22.66146,-110z" fill="#a18bff"/><path d="M232.44085,172.41957c-5.73937,-0.85137 -9.43418,4.88514 -7.97508,9.18672c2.59403,7.64748 11.10942,4.01677 11.10942,4.01677c0,0 -0.35182,3.9258 -0.8402,6.33777c-0.50484,2.49327 -1.51593,5.20354 -1.51593,5.20354c0,0 -9.23958,1.09543 -14.42537,-3.45674c-5.92938,-5.2049 -6.67923,-13.24209 -5.72072,-19.08716c1.61171,-9.8284 17.29885,-22.22499 32.13307,-11.00447c15.8964,12.02395 -2.49435,55.90273 -2.49435,55.90273h-14.34249c0,0 17.88765,-45.04971 4.07165,-47.09915z" fill="#8b83ad"/><path d="M254.64106,207.73273c-0.27213,-4.79067 -0.66008,-30.06893 -0.11942,-35.33658c1.12151,-10.92687 15.32894,-12.03493 15.32894,-12.03493l0.18018,12.75229c0,0 -3.13972,0.13568 -3.2314,5.13179c-0.06005,3.27209 -0.21603,20.56083 -0.00922,25.29681c0.27022,6.18795 9.67564,6.08309 9.79271,-0.03095c0.07202,-3.76181 0.45087,-21.67774 0.21961,-25.27172c-0.35958,-5.5883 -4.27364,-5.06311 -4.27364,-5.06311l-0.16386,-12.94472c0,0 15.50089,0.15605 15.9012,11.01715c0.24104,6.53978 0.32008,31.56838 0.00893,37.50482c-0.71374,13.61714 -32.59581,17.25633 -33.63403,-1.02083z" fill="#8b83ad"/><path d="M311.07193,172.13155c-5.73937,-0.85137 -9.43417,4.88514 -7.97508,9.18672c2.59404,7.64748 11.10942,4.01677 11.10942,4.01677c0,0 -0.35183,3.92579 -0.84021,6.33776c-0.50484,2.49327 -1.51592,5.20355 -1.51592,5.20355c0,0 -9.23958,1.09543 -14.42537,-3.45674c-5.92939,-5.2049 -6.67922,-13.24209 -5.72072,-19.08716c1.61171,-9.8284 17.29885,-22.22499 32.13307,-11.00447c15.8964,12.02395 -2.49435,55.90274 -2.49435,55.90274h-14.3425c0,0 17.88765,-45.04971 4.07166,-47.09916z" fill="#8b83ad"/><path d="M342.98411,219.13469c0,0 0.05219,-31.94253 -0.19202,-38.11078c-0.35818,-9.04664 -7.48868,-5.98884 -7.48868,-5.98884c0,0 1.23133,-5.51057 3.45632,-9.074c5.62898,-9.01511 16.36837,-9.02997 16.70551,3.81108c0.27369,10.42469 0.38403,49.36254 0.38403,49.36254z" fill="#8b83ad"/></g></g></g></svg>